<?xml version="1.0" standalone="no"?>
<!DOCTYPE svg PUBLIC "-//W3C//DTD SVG 20010904//EN"
 "http://www.w3.org/TR/2001/REC-SVG-20010904/DTD/svg10.dtd">
<svg version="1.0" xmlns="http://www.w3.org/2000/svg"
 width="64.000000pt" height="39.000000pt" viewBox="0 0 64.000000 39.000000"
 preserveAspectRatio="xMidYMid meet">

<g transform="translate(0.000000,39.000000) scale(0.100000,-0.100000)"
fill="#000000" stroke="none">
<path d="M430 339 c0 -41 -3 -50 -15 -45 -8 3 -28 -2 -45 -12 -26 -15 -30 -23
-30 -59 0 -38 4 -44 32 -59 29 -15 34 -15 65 0 l33 16 0 94 c0 85 -2 96 -20
106 -19 10 -20 8 -20 -41z m-11 -98 c17 -11 7 -41 -13 -41 -19 0 -29 17 -22
35 6 17 15 18 35 6z"/>
<path d="M33 283 c-31 -16 -33 -20 -33 -70 0 -51 1 -53 20 -43 11 6 20 21 20
34 0 26 24 51 40 41 5 -3 10 -16 10 -29 0 -25 17 -46 37 -46 9 0 13 15 13 45
0 40 -4 47 -32 65 -39 23 -34 23 -75 3z"/>
<path d="M532 279 c-29 -19 -33 -26 -30 -58 2 -30 9 -39 40 -56 31 -16 38 -17
52 -6 15 13 14 16 -14 32 -30 19 -39 42 -19 54 5 4 19 -1 29 -10 16 -15 22
-15 35 -5 22 18 19 28 -17 50 -40 24 -36 24 -76 -1z"/>
<path d="M286 234 c-9 -24 -7 -54 4 -54 6 0 10 16 10 35 0 38 -4 44 -14 19z"/>
<path d="M182 203 c-9 -15 -5 -22 19 -35 l29 -17 -16 32 c-22 42 -21 42 -32
20z"/>
</g>
</svg>
